# xmcd
#
# Track frame offsets:
# 150
# 11747
# 23881
# 34871
# 47481
# 59405
# 71523
# 83900
# 94919
# 108324
# 119807
# 129737
# 142200
# 161604
# 174241
#
# Disc length: 2513 seconds
#
# Revision: 0
# Processed by: cddbd v1.5.2PL0 Copyright (c) Steve Scherf et al.
# Submitted via: Axialis_AX_CDPlayer 2.6
#
DISCID=d409cf0f
DTITLE=Otis Redding - The Definitive Soul Collection - Disc 1 of 2
DYEAR=1900
DGENRE=
TTITLE0=These Arms Of Mine
TTITLE1=That's What My Heart Needs
TTITLE2=Pain In My Heart
TTITLE3=Come To Me
TTITLE4=Security
TTITLE5=Chained And Bound
TTITLE6=Mr. Pitiful
TTITLE7=That's How Strong My Love Is
TTITLE8=I've Been Loving You Too Long
TTITLE9=I'm Depending On You
TTITLE10=Respect
TTITLE11=I Can't Turn You Loose
TTITLE12=A Change Is Gonna Come
TTITLE13=Satisfaction
TTITLE14=My Lover's Prayer
EXTD=www.otisredding.com
EXTT0=
EXTT1=
EXTT2=
EXTT3=
EXTT4=
EXTT5=
EXTT6=
EXTT7=
EXTT8=
EXTT9=
EXTT10=
EXTT11=
EXTT12=
EXTT13=
EXTT14=
PLAYORDER=
